<svg xmlns="http://www.w3.org/2000/svg" width="689.144" height="453.559" viewBox="0 0 689.144 453.559">
  <g id="f926f3e46052ddc780a9bb21ef26e2cb" transform="translate(-5 256.801)">
    <path id="Caminho_93" data-name="Caminho 93" d="M172.752,124.837s4.325-3.768,7.309-7.067a40.751,40.751,0,0,0,4.63-6.13c-.307-8.192,9.382,18.079,33.438,19.98-.026,0,63.733.766,102.411,6.736,21.312,3.29,55.123,14.042,63.529,15.8s19.7,13.468,24.859,18.291c11.483,10.742,14.594,12.178,19.538,14.155,2.392,1,65.593-1.2,70.578-1.2,3.788,0,5.981,1.4,7.377,4.386,1.6,3.788,3.389,4.586,9.969,4.187,6.181-.4,14.865-6.779,27.824,0,3.394,1.355,6.058,2.567,9.473,2.76,4.125.275,8.441-2.542,11.549-13.526-1.994-5.582.8-6.579,6.38-3.589,2.592,1.595,12.56,2.791,23.526,2.791,10.367.2,20.535,1,22.529,1.994,2.592,1,3.389.4,3.389-2.392,0-4.785-6.779-11.364-14.953-14.754l-5.981-2.392,4.984-1.4a63.261,63.261,0,0,0,10.965-4.785c3.389-1.794,7.576-3.19,9.57-3.19,4.984,0,3.389-3.788-3.389-8.772-4.785-3.589-7.975-4.187-24.323-3.589-20.934.6-29.507-2.193-32.7-10.766-1.2-2.791-1.994-14.754-1.994-26.317V84.525L576,67.18c7.776-10.367,14.953-22.928,18.143-31.7,2.991-7.975,8.174-20.735,11.165-28.311,6.579-15.551,7.177-19.14,2.592-19.14S576.4,2.982,563.041,12.951l-10.965,8.374-3.389-9.57c-2.592-7.177-6.978-12.76-17.345-22.33l-13.956-12.56,9.37-6.38C532.139-32.9,544.1-43.272,553.87-52.443,577-74.773,582.779-76.767,624.448-76.767c28.311,0,35.688-1.2,27.115-4.386-1.994-.6-9.769-4.785-17.345-9.371-13.757-7.975-14.155-8.174-38.878-9.37-40.074-1.794-53.83,3.788-61.805,25.719a69.991,69.991,0,0,1-12.162,20.535L513.4-44.867l1-20.934c1.794-34.89,1.994-35.289,13.956-48.049,12.361-13.358,14.554-20.535,13.757-43.264-.4-12.56,0-14.355,3.19-14.355,1.794,0,5.582,1.794,8.374,3.987a69.1,69.1,0,0,0,12.76,6.779c27.513,10.168,36.684,14.155,59.213,25.121,23.326,11.364,26.118,13.159,39.476,28.111,14.953,16.548,24.722,23.526,28.111,20.137,5.582-5.582-15.551-55.425-33.495-79.549-10.766-13.956-29.706-31.1-44.26-39.874l-6.579-3.987,5.981-2.392c9.969-4.187,5.383-3.987-2.392-1.4-4.586,1.595-7.576.8-18.342-4.586-12.361-6.38-48.647-2.791-46.852,2.791,1.2,3.589,1.595,8.972.8,11.763l-1.2,5.184-6.779-5.981c-3.788-3.19-8.972-6.38-11.364-6.978-2.991-.8-4.586-2.791-4.984-6.181-.2-2.791-3.987-10.168-3.19-5.582,1,4.785.2,7.377-2.991,10.567-5.981,5.981-7.576,5.184-8.972-3.589a30.9,30.9,0,0,0-6.181-13.757c-2.791-3.389-4.984-8.573-4.984-11.763a21.1,21.1,0,0,0-3.19-10.367c-3.589-4.984-4.785-4.984-30.3-.4-7.775,1.4-11.962,1.4-16.947-.8-3.389-1.4-9.969-2.193-14.355-1.794s-12.959,1.2-18.94,1.794a176.44,176.44,0,0,0-20.934,3.788c-5.383,1.595-11.364,2.991-12.959,2.991-13.757.6-33.1,4.586-43.862,9.171-3.125,1.316-72.97,32.9-72.97,32.9s-21.759,16.238-33.744,49.77-4.8,74.142-14.2,84.358c-4.2,4.567-52.284-1.3-52.284-1.3l-17.325,1.3s-18.343.321-38.951,21.317c-.091.09-3.355,6.55-1.354,9.774,1.144,1.844.811,9.235,1.354,12.315,3.442,19.571,16.2,53.38,31.739,79.611,3,5.059,4.662,5.578,8.189,8.555s5.92,3.354,5.92,3.354c1.569-.4,3.1,23.711-3.788,28.229s-10.168,5.2-10.168,5.2-4.281,1.721-11.165,5.384c-1.792.953-6.4,3.215-7.377,5.5s1.692,1.9,2.9,3.639l11.85,1.2s16.622.075,20.336-3.192,0,8.573,0,8.573-4.811,5.674-4.462,10.567.375,10.766,3.266,10.766,7.377-4.761,7.377-4.761ZM490.47-252.612c2.592,1.994,4.187,7.576,5.981,19.538,1.4,9.171,2.193,17.146,1.794,17.545-.4.6-2.791-1-5.383-3.389-5.782-5.383-8.174-5.582-5.582-.6,1.2,1.994,5.981,5.782,10.567,7.975a162.1,162.1,0,0,1,20.336,12.76c10.168,6.978,12.56,10.168,16.747,20.336,2.592,6.38,4.785,15.352,4.984,19.937.4,7.576,0,8.174-8.573,12.56-5.981,3.19-7.177,4.187-3.589,3.589a55.557,55.557,0,0,0,8.573-2.592c3.19-1,3.389-.4,2.193,6.579-3.389,17.345-16.548,30.105-50.242,48.248-34.89,18.741-53.631,29.906-57.618,34.292-4.386,4.785-2.592,5.184,3.987.8,4.187-2.791,5.184-2.791,12.361.8a94.045,94.045,0,0,0,17.943,6.38c10.766,2.392,29.706,12.76,38.479,20.735a87.98,87.98,0,0,0,13.956,9.769c12.56,7.177,21.532,16.548,27.115,28.111,5.184,10.965,6.181,17.146,2.392,17.146q-2.991,0,0,1.794c2.791,1.595,7.377,18.94,9.769,35.488.8,6.181.4,8.573-1.4,8.573-3.987,0-19.937,8.374-19.937,10.567,0,1,2.991,1.4,6.779.8,3.589-.6,7.776,0,8.772,1,1.595,1.595,2.592,1.4,3.589-1,3.19-8.573,4.785-1.4,4.785,22.13,0,28.71,1.2,32.3,13.557,37.482,5.582,2.392,11.364,2.791,24.323,1.994,13.358-1,17.744-.6,20.735,1.794,4.586,3.389,4.586,3.19-6.18,8.772-9.171,4.586-15.551,5.184-23.327,2.193-3.389-1.2-5.383-1.2-6.38.4-1.994,3.19,4.586,7.177,14.155,8.772,8.573,1.2,20.934,7.377,20.934,10.367,0,1.994-26.118.6-28.909-1.595-1.2-1-4.785-1.4-8.374-1.2s-5.782-.4-5.184-1.595c.8-1-.2-1.4-2.193-.6s-3.788.2-4.386-1.595a5.333,5.333,0,0,0-4.187-2.991c-2.592,0-2.991,1.794-1.994,8.573.8,6.181.4,9.969-1.794,12.959-4.386,6.181-5.582,5.582-8.573-4.586-2.592-8.972-9.769-20.137-11.564-18.143-.6.6-2.393-.2-3.987-1.794-3.788-3.788-6.579-3.788-6.579,0a2.9,2.9,0,0,0,2.791,2.991,5.883,5.883,0,0,1,4.386,2.193c.8,1.4,0,1.794-2.791,1-2.592-1-6.579.4-11.364,3.788-6.181,3.987-9.969,4.984-20.735,4.984-7.177,0-15.352.6-17.943,1.4l-4.785,1.2,3.788-6.181c1.994-3.589,4.187-6.38,4.785-6.579,11.763-1.4,14.953-2.392,18.94-5.184,2.791-1.994,4.984-4.785,4.984-6.181,0-1.994-.8-1.794-3.19.4-4.984,5.184-12.361,5.981-21.931,2.193-4.984-1.794-10.766-2.991-12.959-2.392-3.788,1-3.788.8-1.2-3.19s4.785-4.386,20.535-4.386h17.744v-9.969a215.81,215.81,0,0,0-1.4-21.732c-1.2-10.766-1-11.564,2.592-10.567,1.994.6,3.788.2,3.788-.8s-1.794-1.794-3.987-1.794-3.987-.6-4.187-1.595c-.2-.8-.4-3.589-.6-6.38-.4-2.791-1.2-8.174-1.794-11.962-.8-3.788-1.794-11.564-2.392-16.947-1.794-16.747-2.991-23.526-6.38-33.3-2.991-8.573-2.991-9.37,0-12.56,2.991-2.991,2.991-3.589.2-7.975-1.794-2.791-3.987-4.586-4.785-3.987-1,.6-2.193.2-2.991-1-.6-1-2.991-1.994-5.184-1.994-3.19,0-3.788,1-2.791,3.788.6,2.193.2,4.386-1,5.184a2.155,2.155,0,0,0-.8,3.19c.6,1.2-.6,1-2.991-.6-2.392-1.4-4.187-3.19-4.187-3.987,0-2.592-5.582-1.794-6.579.8-.6,1.595-1.2,1-1.2-1.2-.2-2.991-1.2-3.389-6.181-2.392-3.788.6-5.782.4-4.984-.8.6-1.2,0-1.994-1.4-1.994s-5.383-3.19-8.972-7.177C437.637-.607,435.045-2.2,432.254-1.2c-3.389,1.4-3.389,1.595,0,3.389,1.794,1.2,3.389,3.389,3.389,5.184,0,2.791-.6,2.791-3.589-.6a42.676,42.676,0,0,1-5.981-7.776c-2.193-3.987-2.193-3.987-2.392,0-.2,3.389-.6,3.389-2.193-1C419.893-5.99,419.1-6.388,417.5-4c-1.794,2.392-2.193,2.592-3.19.2-.8-1.994-1.4-1.994-2.592-.2C410.522-2,408.728-2,403.544-4c-5.981-2.193-8.573-1.794-21.931,2.791S363.47,3.979,339.546,3.979c-19.339,0-29.507.8-35.688,2.991-9.969,3.589-21.133,3.987-46.653,2.193-38.279-2.991-41.27-3.589-39.874-6.779.8-2.392.6-2.592-1.794-.6-1.595,1.4-3.987,1.994-5.383,1.2-1.595-1.2-1.595-1.794.2-2.991,1.595-1,1-1.794-1.794-2.592-2.592-.6-4.187,0-4.187,1.595,0,2.791-9.171,1.794-11.165-1.2-.6-1-3.19-1.794-5.782-1.794s-7.377-2.193-10.567-4.984c-8.573-7.177-8.972-6.181-2.791,4.386a131.706,131.706,0,0,1,6.978,13.358c.8,1.994,7.177,18.342,8.174,21.333.8,2.592,2.991,10.567,4.984,17.744,4.785,16.947,9.37,27.912,11.962,27.912,1.2,0,2.694-1.891,2.694-1.891s1.435-1.1,3.264-2.369c5.745-4.034,22.994-11.95,27.935-11.291,5.184.6,5.184.6-1.794,4.386A74.079,74.079,0,0,0,223.711,76.55c-3.987,4.586-8.742,8.121-9.375,8.947-1.077.62.047,2.413,6.983,9.994,8.972,10.367,13.358,22.529,9.37,26.516-1.595,1.595-2.592.6-3.589-3.19-1.4-5.782-11.962-15.75-15.551-14.554-4.586,1.595-1.794,7.975,5.782,13.159,8.374,5.582,12.56,13.956,5.782,11.364a71.432,71.432,0,0,0-10.766-2.592c-7.377-1.2-17.943-9.171-25.121-18.94l-4.187-5.582-1.2,5.981a24.355,24.355,0,0,1-6.38,10.567c-2.791,2.392-8.573,7.775-12.76,11.763-4.386,3.987-8.374,6.779-8.972,6.181-1.994-2.193-1.4-8.573,1.595-14.155a55.27,55.27,0,0,0,4.386-13.358l1.4-7.576-6.181,4.187c-4.386,3.19-8.972,4.386-17.146,4.386H126.617a8.716,8.716,0,0,1-2.513-1c-2.991-1.794,3.1-2.443,7.287-5.633,1.595-1.2,12.145-5.9,12.145-5.9l8.8-4.28s3.19-6.718,3.389-19.677c0-11.364-.4-13.358-3.389-13.358-1.794,0-4.785-2.193-6.579-4.984-2.592-3.788-2.592-4.586-.4-3.788a3.551,3.551,0,0,0,4.187-1c.6-1.2.2-2.193-1-2.193-1,0-3.788-2.791-5.782-6.181-3.19-5.383-3.987-5.782-5.582-2.791-1.794,2.991-2.193,2.991-4.586,0-2.193-2.592-1.794-3.788,1.994-7.975,2.592-2.791,4.386-5.184,3.788-5.383-7.776-4.785-9.57-5.383-10.367-2.991-.6,1.4-1.2.4-1.2-1.994a7.456,7.456,0,0,1,3.788-6.579c6.779-3.589,4.984-7.975-3.389-7.377-6.38.4-7.377-.2-9.171-5.184-1.4-4.586-1.2-6.181,1.794-8.374,3.788-2.791,2.193-3.987-4.386-3.19-1.2.2-3.19-3.589-4.386-8.174-2.392-10.367-4.785-27.513-3.19-24.124,2.193,4.984,5.184,2.592,3.788-2.991-1-4.785,0-6.579,7.177-12.162,11.364-9.37,23.127-12.361,48.647-12.56,23.127-.4,32.5,2.193,46.653,12.361,3.19,2.193,6.38,3.987,7.377,3.987.8,0,.8-8.573.2-19.339-1-15.352-.2-26.118,3.788-53.232,3.235-20.962,6.218-33.719,6.218-33.719a12.133,12.133,0,0,0-1.994,6.2c0,2.718-1.049,2.219,0,3.146.6,1.132,6.566-4.487,7.539-11.713,1-8.972,2.392-11.962,7.776-16.348A111.79,111.79,0,0,0,257.4-192c5.782-7.576,10.567-10.168,67.587-37.283,20.535-9.769,26.317-11.364,46.852-13.159,9.37-.6,19.14-2.392,21.931-3.788,4.386-2.193,21.133-4.586,41.469-5.782a28.714,28.714,0,0,1,13.159,2.392c4.386,1.994,6.978,2.193,10.367.6,2.592-1.2,5.981-1.595,7.377-1,1.4.4,5.782-.4,9.57-1.994C484.29-255.8,485.885-255.8,490.47-252.612ZM251.822-191.8C248.632-189.412,256.806-195.991,251.822-191.8Zm344.116-22.13c11.962,6.38,28.311,17.146,36.286,24.124,15.95,13.557,31.1,32.1,31.9,38.878a19.408,19.408,0,0,0,.8,4.785,4.626,4.626,0,0,1,.8,1.994,16.583,16.583,0,0,0,1.794,3.987A94.067,94.067,0,0,1,671.9-129.8c2.193,6.38,2.193,7.776.2,6.978-1.4-.6-3.589-3.19-4.785-5.981-1.4-2.592-3.19-4.785-4.386-4.785-1,0-4.187-3.589-6.978-7.975-2.991-4.785-5.981-7.576-7.377-6.779-1.2.8-1.595.6-.8-.8.6-1.2-2.791-5.582-7.975-9.769-18.542-15.551-21.732-18.741-19.14-19.937,5.184-1.994,1.994-4.586-9.57-7.975-11.165-2.991-13.956-5.582-6.579-5.582a4.612,4.612,0,0,0,4.187-2.791c.6-1.595,0-2.193-1.4-1.4-1.4,1-1.794.2-1-1.595.6-1.794.4-3.19-.6-3.19s-4.785-3.19-8.573-6.978c-4.785-4.586-9.57-7.177-14.953-7.975-4.386-.8-9.769-1.595-11.962-1.994s-5.383-.8-6.978-1C560.051-219.517,584.175-220.115,595.938-213.934Zm-8.972,8.374c1.794,1.2,1,1.595-2.592,1.595-2.791,0-5.184-.6-5.184-1.595C579.191-207.754,583.377-207.754,586.966-205.561Zm-49.444,3.589c2.592,3.389,2.592,3.389-1.2.6-2.193-1.595-4.386-3.19-4.785-3.389q-.6-.6,1.2-.6C533.933-205.361,536.126-203.766,537.522-201.972Zm60.609,25.52c8.772,5.184,16.349,9.969,16.947,10.766a70.281,70.281,0,0,0,8.772,5.184c7.576,3.788,31.1,24.523,31.1,27.314,0,.8-1.595,1-3.389.4-2.791-.8-2.592-.4.4,1.4,4.187,2.592,7.177,6.181,6.181,7.377-.4.2-4.984-1.994-10.367-5.184-5.383-2.991-16.548-8.374-24.722-11.763s-24.722-10.367-36.884-15.352c-11.962-4.984-22.728-9.171-23.526-9.171s-3.389-1.794-5.782-3.987a28.173,28.173,0,0,0-10.367-5.184c-6.779-1.4-9.171-3.788-9.171-9.37,0-3.389.8-3.19,6.181,1.4,3.589,2.991,7.576,4.785,9.57,4.187,1.794-.4,5.981.8,9.171,2.991,7.775,5.184,11.962,4.984,12.361,0,.2-2.592-1.4-4.984-4.586-6.38-2.592-1.2-4.785-3.19-4.785-4.386-.2-2.991-13.757-9.57-16.348-7.975-1.2.8-1.2-.4.2-2.991,2.393-4.187,2.393-4.187,17.744,3.589C575.2-189.412,589.359-181.636,598.131-176.452Zm66.789,58.815c1.2,2.193,1.6,3.987,1.2,3.987-.6,0-1.994-1.794-3.19-3.987s-1.595-3.987-1.2-3.987C662.329-121.625,663.724-119.831,664.92-117.638ZM584.175-93.713c-4.386.6-9.969,0-12.361-1L567.428-96.7l4.386-1.2c2.392-.6,7.975-.2,12.361,1l7.975,2.193ZM512.2-75.371c-1.794,31.3-3.988,45.855-5.782,39.874-1.2-3.589-1.994-3.987-3.19-1.994-1.4,1.994-1.794,1.794-1.794-1,0-1.794,1-3.389,1.994-3.389,3.19,0,2.392-11.364-1-12.76-1.595-.6-2.991-2.991-2.991-5.184,0-5.782-3.589-2.991-5.981,4.586-1.4,4.984-1.595,3.589-.8-7.377.6-7.576,1.994-15.95,2.991-18.94,1.2-2.791,1.794-5.383,1.4-5.582-.8-.4,12.959-10.168,14.953-10.367C512.8-97.7,513-87.533,512.2-75.371Zm175.447-19.14c.6,1.595.4,2.392-.8,1.794a3.79,3.79,0,0,1-1.994-3.19C684.858-98.7,686.253-98.1,687.649-94.511Zm-68.584,1.994c4.785,2.991,4.785,2.991-2.991,1.794-10.965-1.794-15.95-4.785-7.975-4.785A25.7,25.7,0,0,1,619.065-92.517ZM544.1-82.748c-1.794,2.791-3.788,4.586-4.386,3.987-1-.8,5.184-8.972,6.978-8.972C547.092-87.732,545.9-85.539,544.1-82.748Zm73.369-1.2c.8.6-3.987,1-10.367.6a126.954,126.954,0,0,0-25.32,2.592c-7.576,1.794-15.152,3.389-16.947,3.589-1.994.2-3.589.8-3.589,1.595s-1.4,1.794-2.991,2.592c-2.392.8-2.592.4-1-2.592,2.791-5.184,13.757-8.573,33.893-10.168C607.7-87.134,614.679-86.536,617.47-83.944ZM475.517-77.365c-.2,2.193-9.769,26.516-10.168,26.118-.4,0-3.987-.8-7.776-1.6a30.735,30.735,0,0,1-10.965-4.187c-4.586-3.389-5.782-2.392,14.754-14.155C471.53-76.966,475.517-78.76,475.517-77.365Zm9.37,11.165c-3.788,3.589-4.386,1.4-1.994-7.576l1.2-4.785,1.994,4.386C487.679-70.586,487.48-68.792,484.888-66.2Zm-7.975,2.791c-.8,5.383-5.383,14.355-6.579,12.959-1-1,5.184-17.345,6.38-17.345C477.312-67.795,477.312-65.8,476.913-63.409ZM553.671-66.4a2.185,2.185,0,0,0-1.2,2.991c.8,1.4.4,1.6-.8.8-1.4-.8-2.392-.4-2.392,1s-.6,1.794-1.2,1.2c-1.794-1.6,2.991-7.377,5.981-7.177C555.465-67.6,555.266-67.2,553.671-66.4ZM5-19.347ZM402.946.39c.8,1.2,0,3.19-1.595,4.386a32.364,32.364,0,0,0-6.38,7.576c-4.586,6.978-11.962,7.177-20.137.6-5.582-4.586-5.782-5.184-1.994-6.181A81.216,81.216,0,0,0,384.8,1.985C394.174-2.2,400.952-3,402.946.39Zm-44.46,8.972a10.524,10.524,0,0,1-4.984,0c-1.4-.6-.4-1,2.392-1S359.682,8.764,358.486,9.362Zm10.567,1.595c.8,1.595,2.392,2.991,3.788,2.991s3.589,1.4,4.984,2.991a9.58,9.58,0,0,0,6.181,2.991c2.193,0,3.788.8,3.788,1.994,0,3.19-4.984,2.193-10.567-1.994-2.791-2.193-5.782-3.987-6.978-3.987-1,0-3.389-1.794-5.383-3.987-3.389-3.589-3.389-3.987-.2-3.987A5.089,5.089,0,0,1,369.053,10.957Zm225.888,4.386c-.2,10.766-6.38,26.716-14.953,38.479-8.374,11.763-10.965,13.159-4.586,2.392a117.358,117.358,0,0,0,6.579-11.364,47.825,47.825,0,0,1,4.984-7.377c2.393-2.991,2.193-3.389-1.595-2.592-2.193.4-6.579,2.991-9.57,5.782-4.785,4.586-10.567,6.779-10.567,4.386,0-4.785,24.323-37.083,27.912-37.083C594.143,7.966,594.941,11.356,594.941,15.343Zm-353.885,9.37c5.981-6.181,6.779-4.984,4.187,6.38C248.632,30.1,234.477,31.293,241.056,24.714Zm132.383-4.785c5.383,3.19,11.165,5.981,12.76,5.981,2.193,0,3.389,2.991,4.187,9.969,1.4,11.165,6.978,25.32,14.754,36.485,9.57,13.757,37.681,28.71,60.21,31.7,3.788.4,5.582,2.991,9.171,13.956,2.592,7.576,4.187,13.557,3.788,13.557-.6,0-5.184-2.193-10.367-4.785C456.976,121.21,449.6,114.63,449.6,110.643c0-4.187-6.779-7.377-9.57-4.586-1.794,1.794-3.788,1.4-7.775-1.994A160.086,160.086,0,0,0,416.9,94.095a269.185,269.185,0,0,1-23.526-16.149c-7.576-5.782-14.155-10.168-14.753-9.57-1.4,1.4,27.912,22.728,38.08,27.713,4.984,2.392,8.972,4.984,8.972,5.782s3.389,3.589,7.377,5.981c4.984,3.19,7.576,3.788,8.174,2.193,1.2-3.788,4.386-2.791,4.386,1.595,0,5.383,9.171,13.358,20.535,17.345,9.57,3.389,16.348,8.573,11.364,8.573-1.4,0-1.994,1.4-1.2,2.991,1.595,4.586-1.595,3.589-6.978-2.193-2.592-2.791-9.37-7.177-14.953-9.769a83.606,83.606,0,0,1-17.545-11.564c-7.776-7.377-13.159-10.367-13.159-7.576,0,3.987-6.38,3.987-10.567,0-3.987-3.788-4.187-3.987-.4-2.592,3.589,1.2,3.389.8-.8-3.788-2.592-2.991-6.779-5.981-8.972-6.579-2.392-.8-4.586-1.794-5.184-2.592a42.173,42.173,0,0,0-4.984-3.589c-2.193-1.2-3.788-3.19-3.389-4.386a1.8,1.8,0,0,0-1.794-2.193c-1,0-1.595-.8-1-1.595.6-1-1.595-3.589-4.785-5.981s-5.582-5.981-5.582-7.775c.2-6.978-10.766-31.7-16.947-38.08a66.749,66.749,0,0,0-13.757-10.567c-4.187-2.193-7.576-4.386-7.576-4.785,0-.6,5.782-1,12.959-1C361.676,13.948,365.265,14.944,373.439,19.929Zm63.2-1c7.377,1.595,9.37,4.586,6.579,9.57a8.494,8.494,0,0,0,0,8.174c4.586,9.37,4.187,12.76-1.2,13.757-3.788.8-6.579-.6-11.165-4.984-5.383-5.582-6.181-5.782-8.374-2.592-2.193,2.991-2.791,2.791-5.582-2.791A25.869,25.869,0,0,1,413.911,29.5c.2-3.389.6-3.589,1.2-1.2.4,1.994,1.794,3.589,2.791,3.589,2.392,0,2.392-5.383-.2-6.978s-.2-6.579,3.589-7.576C424.677,16.34,426.272,16.539,436.64,18.932Zm-87.125,7.177L345.128,28.9c-13.358-1.794-16.348-2.991-12.76-5.184C336.954,20.726,344.131,21.723,349.514,26.109ZM467.542,28.9c1.794-1,.6,16.747-1.4,22.928-1.4,4.586-4.187-1.595-3.589-7.975.4-2.791.8-8.174,1-11.962s.8-5.782,1.4-4.386C465.349,28.7,466.745,29.5,467.542,28.9ZM311.235,30.695c3.589,2.791,3.389,2.991-2.193,2.392-3.19-.4-6.181-1.595-6.579-2.991C301.466,26.907,306.45,27.305,311.235,30.695Zm44.859,3.19c4.586,2.592,11.364,30.7,12.361,26.317.6-2.392,1.2-1.794,2.392,2.392,1.595,5.981-28.909-23.925-25.918-26.317C351.309,31.293,350.91,31.293,356.094,33.885Zm-157.1,7.975c.6,2.193.2,4.586-.8,5.184s-1.794.2-1.794-1a21.825,21.825,0,0,0-1.2-4.984c-.6-1.794-.4-3.19.8-3.19C196.995,37.872,198.391,39.667,198.989,41.86ZM486.881,61.2c2.592,1.994,2.991,4.984,1.994,15.75-1.2,11.364-1,12.76,1.595,10.766,3.589-2.991,3.788-1.994.6,5.383-1.2,2.991-2.193,12.162-1.994,20.336,0,7.975-.2,14.355-.6,13.757C486.483,125.2,481.5,76.55,481.9,60.8c.2-9.769.6-14.355,1-9.969S485.087,59.8,486.881,61.2Zm9.57,17.943c-1.794,7.377-3.589,3.987-1.794-3.788.8-3.589,1.794-5.383,2.193-3.987C497.448,72.762,497.249,76.152,496.451,79.142ZM374.037,91.3c11.564,7.576,30.9,22.928,32.3,25.52.8,1.595,3.19,2.791,5.184,2.791,2.991,0,16.747,8.374,22.928,14.155,2.991,2.592-12.56,7.775-23.925,7.775a127.665,127.665,0,0,1-24.124-3.19C375.233,135.764,367.458,86.718,374.037,91.3ZM506.42,128.387c1.6,15.152,1.6,19.738-.4,20.535-6.779,2.592-12.56-10.168-12.56-28.311V107.453l5.383.6C504.227,108.649,504.426,108.848,506.42,128.387Zm-285.1-14.754c.6,1.2-5.981-1.994-3.19-1.994A3.79,3.79,0,0,1,221.318,113.633Zm207.945,4.187c-1.4.8-4.187.6-6.181-.6-2.991-1.595-3.389-2.392-1.4-3.589,1.4-1,4.187-.6,6.181.6C430.459,115.827,430.858,117.023,429.263,117.82Zm12.361,10.965c0,1.794-7.377-2.991-10.168-6.579-1.994-2.392-1-2.193,3.788,1.2C438.633,125.8,441.624,128.188,441.624,128.786Zm21.133,16.747c0,3.788-1.794,9.969-3.987,13.757-2.791,4.984-3.389,7.177-1.6,7.775,2.791.8,3.19,6.38.4,6.38a2.144,2.144,0,0,1-1.994-1.994c0-1.4-1.2-1.4-3.589-.2-3.19,1.794-3.788,1.2-3.788-4.386,0-3.589,1-6.978,2.193-7.775,1.2-1,.4-1.595-2.193-1.595-2.392,0-5.184,1.4-6.181,3.19s-5.184,4.785-9.57,6.779l-7.776,3.589,5.981.4c3.389,0,7.776,1.4,9.769,2.991,3.589,2.791,3.589,2.991-1.6,4.984-12.162,4.586-23.127,0-23.127-9.57.2-9.969,10.168-17.545,20.137-15.551,6.978,1.4,7.177.2,1.4-4.984-4.386-3.589-4.386-3.987-1-6.579,1.794-1.4,5.582-2.193,8.174-1.794a13.973,13.973,0,0,0,8.573-1.2C459.169,136.162,462.558,137.957,462.757,145.533ZM386.2,143.14c1.994.8-5.981,1.4-17.345,1.4C357.29,144.536,381.613,141.346,386.2,143.14Zm46.254,1.794c-.8,2.592-3.19,3.589-7.975,3.788-8.573.2-8.772-1.794-.2-4.586C433.45,141.147,433.45,141.147,432.453,144.935Zm33.893,14.355-1.2,5.782,8.772-1c10.367-1.2,13.757,2.791,7.377,8.573-1.994,1.794-3.788,4.586-3.788,6.181s-2.392,2.592-6.978,2.592c-6.779,0-25.918-1.994-17.545-.6,5.184.8,6.579.4,6.579-2.193,0-2.791,4.984-4.386,10.567-3.389,1,.2,1.4-.8,1-2.193-.6-1.4-2.791-2.791-5.184-3.19-5.184-.8-6.38-5.981-2.791-11.962C466.944,152.112,467.742,152.312,466.346,159.29Zm-54.628,6.181c-4.785,2.991-7.177,2.193-2.791-.8,1.994-1.595,4.187-2.392,4.785-1.994C414.111,163.277,413.313,164.473,411.718,165.47Zm124.807,14.953c2.791,2.193,2.991,2.791.8,2.791a13.658,13.658,0,0,1-6.779-2.791c-2.991-2.193-3.19-2.991-1-2.991C531.142,177.432,534.332,178.828,536.525,180.423ZM475.318,188.8C487.878,187.4,468.539,189.594,475.318,188.8Z" transform="translate(0 0)" fill="#334155"/>
    <path id="Caminho_95" data-name="Caminho 95" d="M207.193-227.905c13.557,10.168,19.14,19.937,17.345,29.906-.8,4.187-2.592,9.969-4.187,12.76-2.592,4.785-2.392,4.984,1.4,1.4,4.785-4.187,8.573-4.386,8.573-.4a3.066,3.066,0,0,0,2.991,2.991,3.066,3.066,0,0,0,2.991-2.991c0-1.4,1.4-3.589,3.389-4.586,3.987-2.392,1.994-9.37-2.392-7.576-1.994.8-4.187-1.595-6.978-7.975-4.984-10.567-16.348-23.725-24.124-27.912C197.025-236.877,197.424-235.481,207.193-227.905Z" transform="translate(193.36 21.746)" fill="#334155"/>
    <path id="Caminho_96" data-name="Caminho 96" d="M179.965-226.421a46.732,46.732,0,0,0-.8,11.364c1,11.165-.2,18.342-2.791,17.345a7,7,0,0,0-5.582.8c-2.392,1.6-2.392,1.994,0,3.589,2.193,1.4,2.193,1.794,0,2.592-1.595.6-1.994,2.193-1,4.785,1.4,3.589,1.595,3.589,3.987.2,3.589-4.586,5.582-4.187,4.984,1-.6,6.38,2.193,15.152,5.184,16.149,4.586,1.794,20.934,3.788,20.934,2.592,0-.6-3.389-2.791-7.377-4.984-4.187-2.193-8.972-5.981-10.567-8.573-3.589-5.981-5.383-43.064-2.193-49.245,1.994-3.389,1.794-4.187-.6-4.187C182.358-233,180.564-230.408,179.965-226.421Z" transform="translate(162.97 23.651)" fill="#334155"/>
    <path id="Caminho_97" data-name="Caminho 97" d="M184.181-226.7C178.4-221.919,178-220.523,178-208.96c0,21.732,11.564,34.691,28.51,32.1,9.969-1.595,28.51-13.956,32.5-21.532,2.991-5.582,2.791-6.181-2.193-10.766-2.791-2.592-4.586-4.785-3.788-4.785s-1-2.791-4.386-6.181C216.479-232.884,195.146-236.074,184.181-226.7Zm28.71,4.785c.6,1-.2,1.994-1.994,1.994s-2.592-1-1.994-1.994c.6-1.2,1.6-1.994,1.994-1.994S212.292-223.115,212.89-221.919Zm-25.121,12.361c-1.4,2.592-2.791,3.589-3.19,2.193-.6-1.4.2-4.386,1.595-6.978s2.791-3.589,3.19-2.193C189.962-215.14,189.165-212.15,187.769-209.558Zm13.159-4.586c-2.193,3.788,3.589,4.785,6.181,1.2,3.389-4.586,3.788-4.187,6.38,7.975a125.06,125.06,0,0,0,3.589,13.757c1,2.791.6,3.389-1.4,2.791-1.595-.6-2.791-1.994-2.791-2.991a6.3,6.3,0,0,0-1.4-3.788c-1-.8-1.6-2.991-1.6-4.586,0-3.987-7.377-8.972-8.972-6.181-1.994,2.991-6.38,2.392-7.775-1.2-.8-1.994.2-4.386,2.193-5.981C199.532-216.336,202.722-216.735,200.928-214.143Zm21.931,7.776a33.145,33.145,0,0,0-1,8.772c0,9.57-1.4,5.981-2.791-7.377-1-10.965-1-11.564,1.794-7.975C222.659-210.754,223.457-207.763,222.859-206.368Zm-30.9,2.392c0,1,2.392,1.994,5.184,1.994,4.586,0,4.785.4,1.994,2.991-3.589,3.788-12.361,3.987-13.757.2-1-2.791,1.994-7.177,4.984-7.177A1.824,1.824,0,0,1,191.956-203.975Z" transform="translate(171.913 24.532)" fill="#334155"/>
    <path id="Caminho_98" data-name="Caminho 98" d="M167.672-220.084c-3.19,2.392-3.389,2.791-.6,2.991a5.665,5.665,0,0,0,4.586-2.991C173.055-223.872,172.656-223.872,167.672-220.084Z" transform="translate(159.114 33.663)" fill="#334155"/>
    <path id="Caminho_99" data-name="Caminho 99" d="M146.6-214.92a31.17,31.17,0,0,1,1.2,3.987c0,.4,1.794.8,3.987.8,4.984,0,4.984-1.794.6-5.184C147.594-218.907,145.2-218.708,146.6-214.92Z" transform="translate(140.315 38.667)" fill="#334155"/>
    <path id="Caminho_100" data-name="Caminho 100" d="M241-214.006c0,1,1.2,1.994,2.791,1.994a5.616,5.616,0,0,0,4.187-1.994c.6-1.2-.6-1.994-2.791-1.994C242.794-216,241-215.2,241-214.006Z" transform="translate(234.517 40.544)" fill="#334155"/>
    <path id="Caminho_101" data-name="Caminho 101" d="M245-210.726c0,5.582,3.19,9.37,6.978,7.975,4.984-1.994,2.991-10.168-2.392-10.965C246.2-214.314,245-213.317,245-210.726Zm6.978.6c.6,1-.2,1.994-1.994,1.994s-2.592-1-1.994-1.994c.6-1.2,1.595-1.994,1.994-1.994S251.38-211.324,251.978-210.127Z" transform="translate(238.492 42.647)" fill="#334155"/>
    <path id="Caminho_102" data-name="Caminho 102" d="M138-210.231c0,4.187,5.383,7.576,9.969,6.181,4.984-1.6,5.184-4.984.2-4.984-2.193,0-4.586-1-5.184-1.994C141.19-214.019,138-213.421,138-210.231Z" transform="translate(132.164 43.548)" fill="#334155"/>
    <path id="Caminho_103" data-name="Caminho 103" d="M160-210.859c0,2.592,5.582,8.374,7.975,8.374a4.288,4.288,0,0,0,2.991-1.994c.6-1.2.2-1.994-1.2-1.994s-4.187-1.4-6.181-3.389C161.595-211.657,160-212.055,160-210.859Z" transform="translate(154.026 44.973)" fill="#334155"/>
    <path id="Caminho_104" data-name="Caminho 104" d="M152-206.54a4.656,4.656,0,0,0,1.994,3.19c1.2.6,1.994.4,1.994-.8a4.066,4.066,0,0,0-1.994-3.19C153-207.935,152-207.736,152-206.54Z" transform="translate(146.076 48.828)" fill="#334155"/>
    <path id="Caminho_105" data-name="Caminho 105" d="M150.929-202.395c0,2.392-1,3.19-3.589,2.392-2.991-1-3.389-.2-2.791,5.782.8,7.377-2.392,9.37-7.177,4.586-3.389-3.389-2.991.4.4,4.187,1.595,1.794,3.589,6.38,4.586,10.168,1,3.987,3.19,6.978,4.785,6.978s2.592-1,2.392-2.392c-2.193-10.766-2.193-13.956-.6-16.348,2.392-4.187,11.364.2,12.56,6.181l.8,4.586,1.595-4.586c1.2-3.788,2.592-4.586,7.177-3.987,3.389.6,5.981-.2,6.579-1.794.6-1.4,0-2.592-1.4-2.592s-4.187-3.788-6.181-8.174c-2.991-6.779-3.987-7.576-5.582-4.984-2.193,3.987-5.383,3.987-9.969-.2C151.129-205.585,150.929-205.585,150.929-202.395Z" transform="translate(129.204 51.661)" fill="#334155"/>
    <path id="Caminho_106" data-name="Caminho 106" d="M123.64-200.006c.6,1,1.595,1.994,2.193,1.994.4,0,.8-1,.8-1.994A2.049,2.049,0,0,0,124.438-202C123.441-202,123.042-201.2,123.64-200.006Z" transform="translate(117.615 54.456)" fill="#334155"/>
    <path id="Caminho_107" data-name="Caminho 107" d="M320.119-194.2c-33.893,12.959-101.879,20.336-129.592,14.155-5.383-1.2-9.37-1.2-10.367,0-1.2,1-1.4,1.794-.8,1.794s8.972,1.4,18.741,3.19c14.554,2.392,20.934,2.592,35.688.8,25.32-3.19,62.6-9.769,70.777-12.361a83.155,83.155,0,0,1,9.969-2.592,14.045,14.045,0,0,0,5.782-1.794,60.771,60.771,0,0,1,10.965-4.386c5.782-1.794,6.779-2.592,3.19-2.392C331.683-197.785,325.3-196.19,320.119-194.2Z" transform="translate(172.943 58.615)" fill="#334155"/>
    <path id="Caminho_108" data-name="Caminho 108" d="M127-191.012c0,4.187,7.775,18.94,11.962,22.728,3.389,3.19,17.943,7.576,19.538,5.981.4-.4-2.392-1.6-6.38-2.592-8.772-2.592-11.763-5.383-17.146-17.146C130.389-191.411,127-195.4,127-191.012Z" transform="translate(121.233 63.605)" fill="#334155"/>
    <path id="Caminho_109" data-name="Caminho 109" d="M120.728-188.084c1.595,7.576,6.579,18.143,11.165,23.725l3.987,4.984v-4.586c0-2.392-.8-4.386-1.794-4.386s-2.991-2.991-4.386-6.579a80.754,80.754,0,0,0-6.38-12.361C119.731-193.068,119.532-193.068,120.728-188.084Z" transform="translate(114.347 64.664)" fill="#334155"/>
    <path id="Caminho_110" data-name="Caminho 110" d="M263.927-186.807c-2.193,3.389.2,4.187,2.991.8,1.6-1.794,1.6-2.991.4-2.991A4.334,4.334,0,0,0,263.927-186.807Z" transform="translate(256.449 67.375)" fill="#334155"/>
    <path id="Caminho_111" data-name="Caminho 111" d="M209.64-178.006c.6,1,1.6,1.994,2.193,1.994.4,0,.8-1,.8-1.994A2.049,2.049,0,0,0,210.438-180C209.441-180,209.042-179.2,209.64-178.006Z" transform="translate(203.075 76.318)" fill="#334155"/>
    <path id="Caminho_112" data-name="Caminho 112" d="M198-176.209c0,4.984,3.788,5.582,8.374,1.4L210.76-179h-6.38C200.193-179,198-178,198-176.209Z" transform="translate(191.787 77.312)" fill="#334155"/>
    <path id="Caminho_113" data-name="Caminho 113" d="M130-172.006c0,1.2,2.791,3.788,6.181,5.582a44.01,44.01,0,0,1,9.57,6.779c3.389,3.788,10.168,4.785,10.168,1.595,0-1.2-2.193-2.991-4.984-3.987s-4.984-2.791-4.984-3.788c0-1.595-11.763-8.174-14.754-8.174C130.6-174,130-173,130-172.006Z" transform="translate(124.215 82.281)" fill="#334155"/>
    <path id="Caminho_114" data-name="Caminho 114" d="M117-169.251c0,1,1.4,2.991,3.389,4.386,2.991,2.592,2.991,2.392.8-1.794C118.794-171.244,117-172.241,117-169.251Z" transform="translate(111.296 85.307)" fill="#334155"/>
    <path id="Caminho_115" data-name="Caminho 115" d="M174.805-169.628c-2.193.6-2.991,1.794-1.994,2.392s3.589.4,5.582-.4c2.193-.6,2.991-1.794,1.994-2.392S176.8-170.425,174.805-169.628Z" transform="translate(166.336 85.883)" fill="#334155"/>
    <path id="Caminho_116" data-name="Caminho 116" d="M166.6-168.006c-.6,1,.2,1.994,1.794,1.994,1.794,0,3.19-1,3.19-1.994A1.841,1.841,0,0,0,169.789-170,3.79,3.79,0,0,0,166.6-168.006Z" transform="translate(160.386 86.255)" fill="#334155"/>
    <path id="Caminho_117" data-name="Caminho 117" d="M228.649-166.611c-10.965,3.987-11.165,4.785-.2,3.589,5.184-.4,11.364-2.193,13.757-3.987L246.393-170l-4.785.2A60.466,60.466,0,0,0,228.649-166.611Z" transform="translate(213.972 86.255)" fill="#334155"/>
    <path id="Caminho_118" data-name="Caminho 118" d="M164.4-164.928a4.81,4.81,0,0,0-1.4,3.389c0,1.2,1,1,2.392-.4,1.2-1.2,1.794-2.791,1.4-3.389A1.678,1.678,0,0,0,164.4-164.928Z" transform="translate(157.007 90.554)" fill="#334155"/>
    <path id="Caminho_119" data-name="Caminho 119" d="M170-163.006a2.144,2.144,0,0,0,1.994,1.994,2,2,0,0,0,1.994-1.994A1.884,1.884,0,0,0,171.994-165,2,2,0,0,0,170-163.006Z" transform="translate(163.963 91.224)" fill="#334155"/>
    <path id="Caminho_120" data-name="Caminho 120" d="M216-162.807c0,1,1,1.4,1.994.8,1.2-.6,1.994-1.595,1.994-2.193,0-.4-.8-.8-1.994-.8A2.184,2.184,0,0,0,216-162.807Z" transform="translate(209.674 91.224)" fill="#334155"/>
    <path id="Caminho_121" data-name="Caminho 121" d="M220.805-162.109c-2.193,1.595-2.991,2.991-1.994,2.991,1.2,0,3.788-1.4,5.981-2.991,1.994-1.595,2.991-2.791,1.794-2.791C225.59-164.9,222.8-163.7,220.805-162.109Z" transform="translate(212.047 91.323)" fill="#334155"/>
    <path id="Caminho_122" data-name="Caminho 122" d="M215.726-156.115c-2.991,2.791-4.785,4.984-3.788,4.984s3.788-2.193,6.38-4.984C224.3-162.495,222.9-162.495,215.726-156.115Z" transform="translate(205.363 95.298)" fill="#334155"/>
    <path id="Caminho_123" data-name="Caminho 123" d="M150.879-151.913a27.724,27.724,0,0,1-9.57,6.181,12.382,12.382,0,0,0-6.579,4.785c-1,2.193-3.19,3.788-4.785,3.788-3.589,0-3.987,4.785-.4,7.377,1.794,1.6,6.38-1.994,16.747-12.56,7.975-8.174,13.358-14.753,11.962-14.554C157.06-156.9,153.67-154.7,150.879-151.913Z" transform="translate(121.279 99.271)" fill="#334155"/>
    <path id="Caminho_124" data-name="Caminho 124" d="M115-150.666c0,3.389,6.181,22.928,6.978,22.13,1-1-4.187-21.532-5.782-23.127C115.6-152.261,115-151.862,115-150.666Z" transform="translate(109.309 104.204)" fill="#334155"/>
    <path id="Caminho_125" data-name="Caminho 125" d="M180.908-148.992c-1.595,1-2.193,2.392-1.595,2.991.8.8,3.389,0,5.981-1.794C190.079-151.186,186.291-152.382,180.908-148.992Z" transform="translate(172.992 105.122)" fill="#334155"/>
    <path id="Caminho_126" data-name="Caminho 126" d="M211.541-146.614c-2.592,4.586-12.56,13.757-17.545,15.95-2.392,1-2.392,1.4-.4,1.4,2.193.2,1.994,1.2-.8,4.187-4.785,5.383-2.791,6.978,4.386,3.389,6.978-3.788,13.159-10.367,17.545-19.339,1.994-3.788,4.586-7.576,5.782-8.374,1.2-1,.4-1.595-2.193-1.595A8.21,8.21,0,0,0,211.541-146.614Z" transform="translate(184.028 105.136)" fill="#334155"/>
    <path id="Caminho_127" data-name="Caminho 127" d="M204.267-143c-4.785,2.791-10.766,6.779-12.959,8.772-2.392,2.193-5.782,3.987-7.576,3.987s-3.389.8-3.389,1.994c0,1-2.392,1.994-5.383,1.994q-5.682,0-2.991,1.794c1.994,1.2,1.4,1.994-2.392,2.592-2.791.6-4.984.4-4.785-.2.4-4.187-.6-8.174-2.193-8.174-1,0-3.589,3.589-5.582,7.975-2.991,6.779-4.785,8.174-10.965,9.171-11.165,1.994-7.576,3.788,7.576,4.386,8.772.2,15.551-.8,19.937-2.791,3.788-1.794,8.573-2.791,10.567-2.193,4.785,1.2,11.962-5.582,7.775-7.177-1.4-.6-.6-1.2,1.994-1.2,4.386-.2,20.336-14.355,20.336-18.342,0-1-1-1.4-2.392-.6s-1.595.6-.8-1c.8-1.2,2.392-1.794,3.389-1.2a3.645,3.645,0,0,0,3.987-.2c1.595-.8,1.4-1.794-.4-2.991C214.435-148.585,214.634-148.785,204.267-143ZM162.4-120.275c0,2.193-1.4,3.987-2.991,3.987-3.389,0-3.589-.4-1.794-4.785C159.408-125.658,162.4-125.06,162.4-120.275Z" transform="translate(133.684 108.304)" fill="#334155"/>
    <path id="Caminho_128" data-name="Caminho 128" d="M160.875-141.844c-1.994,2.991.2,4.586,3.987,2.991,1.794-.6,2.592-1.994,1.994-3.19C165.261-144.635,162.47-144.635,160.875-141.844Z" transform="translate(154.148 112.129)" fill="#334155"/>
    <path id="Caminho_129" data-name="Caminho 129" d="M69.6-139.006a4.276,4.276,0,0,0,3.19,1.994,1.967,1.967,0,0,0,1.794-1.994c0-1.2-1.4-1.994-3.19-1.994C69.8-141,69-140.2,69.6-139.006Z" transform="translate(63.996 115.073)" fill="#334155"/>
    <path id="Caminho_130" data-name="Caminho 130" d="M59-138.006c0,1,1.4,1.994,3.19,1.994,1.595,0,2.392-1,1.794-1.994A3.79,3.79,0,0,0,60.794-140,1.841,1.841,0,0,0,59-138.006Z" transform="translate(53.661 116.067)" fill="#334155"/>
    <path id="Caminho_131" data-name="Caminho 131" d="M154-137.807c0,1,1,1.4,1.994.8,1.2-.6,1.994-1.595,1.994-2.193,0-.4-.8-.8-1.994-.8A2.184,2.184,0,0,0,154-137.807Z" transform="translate(148.064 116.067)" fill="#334155"/>
    <path id="Caminho_132" data-name="Caminho 132" d="M121.836-134.528c-1,1.6-.4,3.987,1.595,5.782,3.389,3.389,3.788,1.794,1.4-4.386C123.63-136.123,122.833-136.323,121.836-134.528Z" transform="translate(115.631 120.365)" fill="#334155"/>
    <path id="Caminho_133" data-name="Caminho 133" d="M188.5-133.761c-4.386,1.2-4.586,3.788-.4,5.383,3.788,1.4,9.37-2.392,7.576-4.984C194.684-135.157,194.086-135.356,188.5-133.761Z" transform="translate(178.954 121.192)" fill="#334155"/>
    <path id="Caminho_134" data-name="Caminho 134" d="M69-132.006c0,1,1.794,1.994,3.987,1.994s3.987-1,3.987-1.994c0-1.2-1.794-1.994-3.987-1.994S69-133.2,69-132.006Z" transform="translate(63.598 122.029)" fill="#334155"/>
    <path id="Caminho_135" data-name="Caminho 135" d="M172.64-131.006c-.6,1-.2,1.994.8,1.994a2.184,2.184,0,0,0,2.193-1.994c0-1.2-.4-1.994-.8-1.994C174.235-133,173.238-132.2,172.64-131.006Z" transform="translate(166.308 123.023)" fill="#334155"/>
    <path id="Caminho_136" data-name="Caminho 136" d="M77.663-129.006a4.656,4.656,0,0,0,3.19,1.994c1.2,0,1.4-1,.8-1.994A4.066,4.066,0,0,0,78.46-131C77.264-131,77.065-130.2,77.663-129.006Z" transform="translate(71.882 125.01)" fill="#334155"/>
    <path id="Caminho_137" data-name="Caminho 137" d="M72-123.87c-1.794,1.994.8,6.779,3.589,6.779,3.987,0,5.981-4.187,2.791-6.181C74.986-125.266,73.591-125.465,72-123.87Z" transform="translate(65.985 131.039)" fill="#334155"/>
    <path id="Caminho_138" data-name="Caminho 138" d="M95.1-119.372a13.776,13.776,0,0,0,1.794,5.981c2.392,3.589,2.392.4,0-4.984C95.7-120.967,95.1-121.365,95.1-119.372Z" transform="translate(83.876 136.178)" fill="#334155"/>
    <path id="Caminho_139" data-name="Caminho 139" d="M78-118.006c0,1,1.4,1.994,2.991,1.994s2.991-1,2.991-1.994c0-1.2-1.4-1.994-2.991-1.994S78-119.2,78-118.006Z" transform="translate(72.541 135.941)" fill="#334155"/>
    <path id="Caminho_140" data-name="Caminho 140" d="M73.308-111.913c1,3.389,9.57,4.984,9.57,1.994a2.029,2.029,0,0,0-1.794-2.193,19.371,19.371,0,0,1-5.383-1.4C73.308-114.306,72.709-113.907,73.308-111.913Z" transform="translate(67.664 142.01)" fill="#334155"/>
    <path id="Caminho_141" data-name="Caminho 141" d="M267.932-108.237c-1.2,2.791,0,5.184,2.592,5.184.6,0,1.2-1.794,1.2-3.987C271.72-111.627,269.527-112.424,267.932-108.237Z" transform="translate(260.818 144.913)" fill="#334155"/>
    <path id="Caminho_142" data-name="Caminho 142" d="M277.592-105.963c-4.586,1.994-6.38,6.978-2.393,6.978,2.791,0,8.374-5.582,7.377-7.576C282.177-107.359,279.984-107.16,277.592-105.963Z" transform="translate(266.31 148.82)" fill="#334155"/>
    <path id="Caminho_143" data-name="Caminho 143" d="M267.671-98.013c-1.2,2.193-1.595,3.987-1.2,3.987.6,0,1.994-1.794,3.19-3.987s1.6-3.987,1.2-3.987C270.263-102,268.867-100.206,267.671-98.013Z" transform="translate(259.683 153.828)" fill="#334155"/>
    <path id="Caminho_144" data-name="Caminho 144" d="M277.991-98.04c-6.38,1.794-7.576,5.383-2.193,6.579,3.589.6,10.567-4.386,9.57-6.779C284.969-99.236,281.978-99.236,277.991-98.04Z" transform="translate(265.712 156.846)" fill="#334155"/>
    <path id="Caminho_145" data-name="Caminho 145" d="M84-95.54a4.656,4.656,0,0,0,1.994,3.19c1.2.6,1.994.4,1.994-.8a4.066,4.066,0,0,0-1.994-3.19C85-96.935,84-96.736,84-95.54Z" transform="translate(78.504 159.131)" fill="#334155"/>
    <path id="Caminho_146" data-name="Caminho 146" d="M92.537-94.656c-.8,1.2.2,3.389,2.193,4.984,4.586,3.19,8.174-.6,4.586-4.785C96.724-97.647,94.332-97.846,92.537-94.656Z" transform="translate(86.714 158.845)" fill="#334155"/>
    <path id="Caminho_147" data-name="Caminho 147" d="M268.7-90.137c-3.788,3.389-4.187,4.187-1.4,5.184,4.785,1.794,9.171-.6,9.171-5.184C276.476-95.121,274.881-95.121,268.7-90.137Z" transform="translate(258.853 161.902)" fill="#334155"/>
    <path id="Caminho_148" data-name="Caminho 148" d="M280.838-76.962c-2.791,1.994-3.19,3.19-1.4,4.386,2.991,1.794,6.978-1.595,5.981-4.785C284.825-78.956,283.43-78.757,280.838-76.962Z" transform="translate(271.637 177.238)" fill="#334155"/>
    <path id="Caminho_149" data-name="Caminho 149" d="M259.9-76.106c-2.592,1.595-2.392,1.994.6,1.994,1.794,0,3.389-1,3.389-1.994C263.887-78.5,263.688-78.5,259.9-76.106Z" transform="translate(251.505 177.777)" fill="#334155"/>
    <path id="Caminho_150" data-name="Caminho 150" d="M263-74.807c0,1,1,1.4,1.994.8,1.2-.6,1.994-1.595,1.994-2.193,0-.4-.8-.8-1.994-.8A2.184,2.184,0,0,0,263-74.807Z" transform="translate(256.379 178.671)" fill="#334155"/>
    <path id="Caminho_151" data-name="Caminho 151" d="M262-69.6a8.419,8.419,0,0,0,2.791,5.184c2.392,1.794,2.991,1.595,2.592-1.794C267.184-70.8,262-73.789,262-69.6Z" transform="translate(255.385 184.033)" fill="#334155"/>
    <path id="Caminho_154" data-name="Caminho 154" d="M182.489-90.1c-.6,2.991-1.994,8.573-2.991,12.361-2.193,8.772-1.595,9.37,3.589,3.589,5.782-5.981,7.576-15.95,3.788-19.14C184.283-95.486,183.685-94.888,182.489-90.1Z" transform="translate(172.209 161.27)" fill="#334155"/>
    <path id="Caminho_155" data-name="Caminho 155" d="M245.119-92.985c0,2.193.6,2.791,1.2,1.2.6-1.4.4-3.19-.2-3.788C245.518-96.374,244.92-95.178,245.119-92.985Z" transform="translate(238.572 159.965)" fill="#334155"/>
    <path id="Caminho_156" data-name="Caminho 156" d="M76.528-54Z" transform="translate(71.022 201.527)" fill="#334155"/>
    <path id="Caminho_160" data-name="Caminho 160" d="M229.6-53.006c-.6,1.2.2,1.4,1.794.8,3.589-1.4,4.187-2.791,1.4-2.791A3.79,3.79,0,0,0,229.6-53.006Z" transform="translate(222.99 200.533)" fill="#334155"/>
  </g>
</svg>
